<mxfile host="65bd71144e">
    <diagram id="62BTBE5us0kILQ2iMLp4" name="Page-1">
        <mxGraphModel dx="1719" dy="1150" grid="1" gridSize="10" guides="1" tooltips="1" connect="1" arrows="1" fold="1" page="1" pageScale="1" pageWidth="827" pageHeight="1169" math="0" shadow="0">
            <root>
                <mxCell id="0"/>
                <mxCell id="1" parent="0"/>
                <mxCell id="2" value="Loss" style="rounded=0;whiteSpace=wrap;html=1;fontSize=30;" vertex="1" parent="1">
                    <mxGeometry x="320" y="120" width="120" height="40" as="geometry"/>
                </mxCell>
                <mxCell id="3" value="&lt;span style=&quot;color: white ; font-family: &amp;#34;calibri&amp;#34;&quot;&gt;&lt;font style=&quot;font-size: 30px&quot;&gt;Å¶&lt;/font&gt;&lt;/span&gt;" style="rounded=0;whiteSpace=wrap;html=1;fontSize=30;" vertex="1" parent="1">
                    <mxGeometry x="345" y="200" width="70" height="40" as="geometry"/>
                </mxCell>
                <mxCell id="5" value="&lt;span style=&quot;color: white ; font-family: &amp;#34;calibri&amp;#34;&quot;&gt;&lt;font style=&quot;font-size: 30px&quot;&gt;Z&lt;/font&gt;&lt;/span&gt;&lt;span style=&quot;font-size: 18.0pt ; font-family: &amp;#34;calibri&amp;#34; ; color: white ; vertical-align: super&quot;&gt;2&lt;/span&gt;" style="rounded=0;whiteSpace=wrap;html=1;fontSize=30;" vertex="1" parent="1">
                    <mxGeometry x="345" y="281" width="70" height="40" as="geometry"/>
                </mxCell>
                <mxCell id="6" value="&lt;span style=&quot;color: white ; font-family: &amp;#34;calibri&amp;#34;&quot;&gt;&lt;font style=&quot;font-size: 30px&quot;&gt;A&lt;/font&gt;&lt;/span&gt;&lt;span style=&quot;font-size: 18.0pt ; font-family: &amp;#34;calibri&amp;#34; ; color: white ; vertical-align: super&quot;&gt;1&lt;/span&gt;" style="rounded=0;whiteSpace=wrap;html=1;fontSize=30;" vertex="1" parent="1">
                    <mxGeometry x="345" y="521" width="70" height="40" as="geometry"/>
                </mxCell>
                <mxCell id="7" value="&lt;span style=&quot;color: white ; font-family: &amp;#34;calibri&amp;#34;&quot;&gt;&lt;font style=&quot;font-size: 30px&quot;&gt;Z&lt;/font&gt;&lt;/span&gt;&lt;span style=&quot;font-size: 18.0pt ; font-family: &amp;#34;calibri&amp;#34; ; color: white ; vertical-align: super&quot;&gt;1&lt;/span&gt;" style="rounded=0;whiteSpace=wrap;html=1;fontSize=30;" vertex="1" parent="1">
                    <mxGeometry x="345" y="601" width="70" height="40" as="geometry"/>
                </mxCell>
                <mxCell id="8" value="&lt;span style=&quot;color: white ; font-family: &amp;#34;calibri&amp;#34;&quot;&gt;&lt;font style=&quot;font-size: 30px&quot;&gt;A&lt;/font&gt;&lt;/span&gt;&lt;span style=&quot;font-size: 18.0pt ; font-family: &amp;#34;calibri&amp;#34; ; color: white ; vertical-align: super&quot;&gt;0&lt;/span&gt;" style="rounded=0;whiteSpace=wrap;html=1;fontSize=30;" vertex="1" parent="1">
                    <mxGeometry x="345" y="840" width="70" height="40" as="geometry"/>
                </mxCell>
                <mxCell id="9" value="&lt;span style=&quot;color: white ; font-family: &amp;#34;calibri&amp;#34;&quot;&gt;&lt;font style=&quot;font-size: 30px&quot;&gt;W&lt;/font&gt;&lt;/span&gt;&lt;span style=&quot;font-size: 18.0pt ; font-family: &amp;#34;calibri&amp;#34; ; color: white ; vertical-align: super&quot;&gt;2&lt;/span&gt;" style="rounded=0;whiteSpace=wrap;html=1;fontSize=30;" vertex="1" parent="1">
                    <mxGeometry x="345" y="360" width="70" height="40" as="geometry"/>
                </mxCell>
                <mxCell id="10" value="&lt;span style=&quot;color: white ; font-family: &amp;#34;calibri&amp;#34;&quot;&gt;&lt;font style=&quot;font-size: 30px&quot;&gt;B&lt;/font&gt;&lt;/span&gt;&lt;span style=&quot;font-size: 18.0pt ; font-family: &amp;#34;calibri&amp;#34; ; color: white ; vertical-align: super&quot;&gt;2&lt;/span&gt;" style="rounded=0;whiteSpace=wrap;html=1;fontSize=30;" vertex="1" parent="1">
                    <mxGeometry x="345" y="440" width="70" height="40" as="geometry"/>
                </mxCell>
                <mxCell id="11" value="&lt;span style=&quot;color: white ; font-family: &amp;#34;calibri&amp;#34;&quot;&gt;&lt;font style=&quot;font-size: 30px&quot;&gt;W&lt;/font&gt;&lt;/span&gt;&lt;span style=&quot;font-size: 18.0pt ; font-family: &amp;#34;calibri&amp;#34; ; color: white ; vertical-align: super&quot;&gt;2&lt;/span&gt;" style="rounded=0;whiteSpace=wrap;html=1;fontSize=30;" vertex="1" parent="1">
                    <mxGeometry x="345" y="680" width="70" height="40" as="geometry"/>
                </mxCell>
                <mxCell id="12" value="&lt;span style=&quot;color: white ; font-family: &amp;#34;calibri&amp;#34;&quot;&gt;&lt;font style=&quot;font-size: 30px&quot;&gt;B&lt;/font&gt;&lt;/span&gt;&lt;span style=&quot;font-size: 18.0pt ; font-family: &amp;#34;calibri&amp;#34; ; color: white ; vertical-align: super&quot;&gt;2&lt;/span&gt;" style="rounded=0;whiteSpace=wrap;html=1;fontSize=30;" vertex="1" parent="1">
                    <mxGeometry x="345" y="760" width="70" height="40" as="geometry"/>
                </mxCell>
            </root>
        </mxGraphModel>
    </diagram>
</mxfile>